<?xml version="1.0" encoding="UTF-8"?>
<svg width="18px" height="18px" viewBox="0 0 18 18" version="1.1" xmlns="http://www.w3.org/2000/svg" xmlns:xlink="http://www.w3.org/1999/xlink">
    <title>ico/24/information</title>
    <g id="ㄴ-가이드센터" stroke="none" stroke-width="1" fill="none" fill-rule="evenodd" opacity="0.900000036">
        <g id="contents" transform="translate(-420.000000, -4467.000000)">
            <g transform="translate(405.000000, 96.000000)" id="Group-2">
                <g transform="translate(0.000000, 191.000000)">
                    <g transform="translate(0.000000, 4157.000000)">
                        <g id="Group" transform="translate(12.000000, 20.000000)">
                            <g transform="translate(4.000000, 4.000000)">
                                <path d="M8,0 C3.584,0 0,3.584 0,8 C0,12.416 3.584,16 8,16 C12.416,16 16,12.416 16,8 C16,3.584 12.416,0 8,0 L8,0 Z" id="Fill-1" stroke="#194BDC" stroke-width="1.2"></path>
                                <path d="M8.75,7.25 L8.75,11.75 L7.25,11.75 L7.25,7.25 L8.75,7.25 Z M8.75,4.25 L8.75,5.75 L7.25,5.75 L7.25,4.25 L8.75,4.25 Z" id="Combined-Shape" fill="#194BDC"></path>
                            </g>
                        </g>
                    </g>
                </g>
            </g>
        </g>
    </g>
</svg>