<?xml version="1.0" encoding="UTF-8"?>
<svg width="24px" height="24px" viewBox="0 0 24 24" version="1.1" xmlns="http://www.w3.org/2000/svg" xmlns:xlink="http://www.w3.org/1999/xlink">
    <title>ico/32/search</title>
    <defs>
        <filter id="filter-1">
            <feColorMatrix in="SourceGraphic" type="matrix" values="0 0 0 0 0.098039 0 0 0 0 0.294118 0 0 0 0 0.862745 0 0 0 1.000000 0"></feColorMatrix>
        </filter>
    </defs>
    <g id="ㄴ-가이드센터" stroke="none" stroke-width="1" fill="none" fill-rule="evenodd">
        <g id="github.io_Main_1920" transform="translate(-1403.000000, -451.000000)">
            <g id="Contents" transform="translate(281.000000, 56.000000)">
                <g id="title-/-search" transform="translate(474.000000, 240.000000)">
                    <g id="Group-3" transform="translate(0.000000, 139.000000)">
                        <g id="ico/32/search" transform="translate(640.000000, 8.000000)" filter="url(#filter-1)">
                            <g id="Group-11" transform="translate(21.066942, 21.066942) rotate(-45.000000) translate(-21.066942, -21.066942) translate(11.691942, 7.316942)" fill="#222222" fill-rule="nonzero">
                                <path d="M9.375,0.0904130879 C14.3800805,0.0904130879 18.4375,4.14783254 18.4375,9.15291309 C18.4375,13.8412381 14.8773919,17.6980552 10.3130917,18.1674488 L10.3125,27.2779131 L8.4375,27.2779131 L8.43790845,18.1675516 C3.87312814,17.6986186 0.3125,13.8415805 0.3125,9.15291309 C0.3125,4.14783254 4.36991945,0.0904130879 9.375,0.0904130879 Z M9.375,1.96541309 C5.40545336,1.96541309 2.1875,5.18336645 2.1875,9.15291309 C2.1875,13.1224597 5.40545336,16.3404131 9.375,16.3404131 C13.3445466,16.3404131 16.5625,13.1224597 16.5625,9.15291309 C16.5625,5.18336645 13.3445466,1.96541309 9.375,1.96541309 Z" id="Combined-Shape"></path>
                            </g>
                        </g>
                    </g>
                </g>
            </g>
        </g>
    </g>
</svg>
