<?xml version="1.0" encoding="UTF-8"?>
<svg xmlns="http://www.w3.org/2000/svg" width="150" height="200" viewBox="0 0 150 200">
	<svg width="8px" height="5px" viewBox="0 0 8 5" version="1.1" xmlns="http://www.w3.org/2000/svg" xmlns:xlink="http://www.w3.org/1999/xlink">
	    <title>arrow</title>
	    <g id="Symbol" stroke="none" stroke-width="1" fill="none" fill-rule="evenodd" stroke-linecap="round">
	        <g id="ico/k/arrow" transform="translate(-12.000000, -14.000000)" stroke="#222222" stroke-width="1.5">
	            <g id="arrow">
	                <polyline points="13 15 16 18 19 15"></polyline>
	            </g>
	        </g>
	    </g>
	</svg>
	<svg width="10px" height="2px" y="10" viewBox="0 0 10 2" version="1.1" xmlns="http://www.w3.org/2000/svg" xmlns:xlink="http://www.w3.org/1999/xlink">
	    <title>Line</title>
	    <g id="ㄴ-가이드센터" stroke="none" stroke-width="1" fill="none" fill-rule="evenodd" stroke-linecap="square">
	        <g id="0_common_LNB" transform="translate(-944.000000, -860.000000)" stroke="#222222">
	            <g id="lnb" transform="translate(865.000000, 330.000000)">
	                <g id="2-copy-2" transform="translate(0.000000, 507.000000)">
	                    <line x1="80" y1="24" x2="88" y2="24" id="Line"></line>
	                </g>
	            </g>
	        </g>
	    </g>
	</svg>
	<svg width="12px" height="8px" viewBox="0 0 12 8" y="20" version="1.1" xmlns="http://www.w3.org/2000/svg" xmlns:xlink="http://www.w3.org/1999/xlink">
	    <title>ico/24/arrow/up_B</title>
	    <g id="Symbols" stroke="none" stroke-width="1" fill="none" fill-rule="evenodd">
	        <g id="ico/24/arrow/up_B" transform="translate(-6.000000, -8.000000)" stroke="#222222" stroke-width="2">
	            <g id="Group" transform="translate(12.000000, 12.000000) rotate(-180.000000) translate(-12.000000, -12.000000) translate(-0.000000, -0.000000)">
	                <polyline id="Path-2-Copy-4" transform="translate(12.000000, 12.000000) scale(1, -1) rotate(-90.000000) translate(-12.000000, -12.000000) " points="9.5 7 14.5 12.0000028 9.5 17.0000056"></polyline>
	            </g>
	        </g>
	    </g>
	</svg>
	<svg width="12px" height="8px" viewBox="0 0 12 8" y="30" version="1.1" xmlns="http://www.w3.org/2000/svg" xmlns:xlink="http://www.w3.org/1999/xlink">
	    <title>ico/24/arrow/down_B</title>
	    <g id="Symbols" stroke="none" stroke-width="1" fill="none" fill-rule="evenodd">
	        <g id="ico/24/arrow/down_B" transform="translate(-6.000000, -8.000000)" stroke="#222222" stroke-width="2">
	            <g id="Group">
	                <polyline id="Path-2-Copy-4" transform="translate(12.000000, 12.000000) scale(1, -1) rotate(-90.000000) translate(-12.000000, -12.000000) " points="9.5 7 14.5 12.0000028 9.5 17.0000056"></polyline>
	            </g>
	        </g>
	    </g>
	</svg>
	<svg width="6px" height="8px" viewBox="0 0 6 8" y="40" version="1.1" xmlns="http://www.w3.org/2000/svg" xmlns:xlink="http://www.w3.org/1999/xlink">
	    <title>Path 2 Copy 4</title>
	    <g id="Symbols" stroke="none" stroke-width="1" fill="none" fill-rule="evenodd" opacity="0.4">
	        <g id="ico/16/arrow/right" transform="translate(-5.000000, -4.000000)" stroke="#222222" stroke-width="0.96">
	            <g id="Group" transform="translate(8.000000, 8.000000) rotate(-90.000000) translate(-8.000000, -8.000000) ">
	                <polyline id="Path-2-Copy-4" transform="translate(8.000000, 8.000000) scale(1, -1) rotate(-90.000000) translate(-8.000000, -8.000000) " points="6 4 10 8.00000223 6 12.0000045"></polyline>
	            </g>
	        </g>
	    </g>
	</svg>

	<svg width="10px" height="14px" viewBox="0 0 10 14" y="60" version="1.1" xmlns="http://www.w3.org/2000/svg" xmlns:xlink="http://www.w3.org/1999/xlink">
	    <title>ico/32/paging/first</title>
	    <g id="Symbols" stroke="none" stroke-width="1" fill="none" fill-rule="evenodd" stroke-linecap="square">
	        <g id="component/paging/set" transform="translate(-11.000000, -9.000000)" stroke="#A0A0A0" stroke-width="1.5">
	            <g id="Group" transform="translate(11.500000, 10.000000)">
	                <polyline id="Path" points="8.5 11 3.5 6.06747733 8.5 1"></polyline>
	                <line x1="0.5" y1="11.5" x2="0.5" y2="0.5" id="Line"></line>
	            </g>
	        </g>
	    </g>
	</svg>
	<svg width="10px" height="14px" viewBox="0 0 10 14" y="80" version="1.1" xmlns="http://www.w3.org/2000/svg" xmlns:xlink="http://www.w3.org/1999/xlink">
	    <title>ico/32/paging/first</title>
	    <g id="Symbols" stroke="none" stroke-width="1" fill="none" fill-rule="evenodd" stroke-linecap="square">
	        <g id="component/paging/set" transform="translate(-443.000000, -9.000000)" stroke="#A0A0A0" stroke-width="1.5">
	            <g id="Group" transform="translate(432.000000, 0.000000)">
	                <g transform="translate(16.000000, 16.000000) scale(-1, 1) translate(-16.000000, -16.000000) translate(11.500000, 10.000000)">
	                    <polyline id="Path" points="8.5 11 3.5 6.06747733 8.5 1"></polyline>
	                    <line x1="0.5" y1="11.5" x2="0.5" y2="0.5" id="Line" stroke-linejoin="round"></line>
	                </g>
	            </g>
	        </g>
	    </g>
	</svg>

	<svg width="8px" height="12px" viewBox="0 0 8 12" y="100" version="1.1" xmlns="http://www.w3.org/2000/svg" xmlns:xlink="http://www.w3.org/1999/xlink">
	    <title>ico/32/arrow_big/right</title>
	    <defs>
	        <filter id="filter-1">
	            <feColorMatrix in="SourceGraphic" type="matrix" values="0 0 0 0 0.627451 0 0 0 0 0.627451 0 0 0 0 0.627451 0 0 0 1.000000 0"></feColorMatrix>
	        </filter>
	    </defs>
	    <g id="Symbols" stroke="none" stroke-width="1" fill="none" fill-rule="evenodd" stroke-linecap="square">
	        <g id="component/paging/set" transform="translate(-43.000000, -10.000000)">
	            <g id="ico/32/arrow_big/right" transform="translate(32.000000, 0.000000)" filter="url(#filter-1)">
	                <g>
	                    <polyline id="Path" stroke="#A0A0A0" stroke-width="1.5" points="17.5 21 12.5 16.0674773 17.5 11"></polyline>
	                </g>
	            </g>
	        </g>
	    </g>
	</svg>
	<svg width="8px" height="12px" viewBox="0 0 8 12" y="120" version="1.1" xmlns="http://www.w3.org/2000/svg" xmlns:xlink="http://www.w3.org/1999/xlink">
	    <title>ico/32/arrow_big/right</title>
	    <defs>
	        <filter id="filter-1">
	            <feColorMatrix in="SourceGraphic" type="matrix" values="0 0 0 0 0.627451 0 0 0 0 0.627451 0 0 0 0 0.627451 0 0 0 1.000000 0"></feColorMatrix>
	        </filter>
	    </defs>
	    <g id="Symbols" stroke="none" stroke-width="1" fill="none" fill-rule="evenodd" stroke-linecap="square">
	        <g id="component/paging/set" transform="translate(-413.000000, -10.000000)">
	            <g id="ico/32/arrow_big/right" transform="translate(400.000000, 0.000000)" filter="url(#filter-1)">
	                <g>
	                    <polyline id="Path" stroke="#A0A0A0" stroke-width="1.5" transform="translate(17.000000, 16.000000) scale(-1, 1) translate(-17.000000, -16.000000) " points="19.5 21 14.5 16.0674773 19.5 11"></polyline>
	                </g>
	            </g>
	        </g>
	    </g>
	</svg>


	<svg width="14px" height="14px" viewBox="0 0 14 14" x="20" y="60" version="1.1" xmlns="http://www.w3.org/2000/svg" xmlns:xlink="http://www.w3.org/1999/xlink">
	    <title>Group</title>
	    <g id="Symbols" stroke="none" stroke-width="1" fill="none" fill-rule="evenodd">
	        <g id="ico/24/contrast" transform="translate(-5.000000, -5.000000)">
	            <g id="Group" transform="translate(5.000000, 5.000000)">
	                <circle id="Oval" stroke="#222222" stroke-width="1.2" cx="7" cy="7" r="6.4"></circle>
	                <path d="M7,2 C9.76142375,2 12,4.23857625 12,7 C12,9.76142375 9.76142375,12 7,12 L7,12 Z" id="Combined-Shape" fill="#222222"></path>
	            </g>
	        </g>
	    </g>
	</svg>
	<svg width="13px" height="15px" viewBox="0 0 13 15" x="20" y="80" version="1.1" xmlns="http://www.w3.org/2000/svg" xmlns:xlink="http://www.w3.org/1999/xlink">
	    <title>Group</title>
	    <g id="Symbols" stroke="none" stroke-width="1" fill="none" fill-rule="evenodd">
	        <g id="ico/24/copy" transform="translate(-5.000000, -4.000000)" stroke="#222222" stroke-width="1.2">
	            <g id="Group" transform="translate(6.500000, 5.500000)">
	                <path d="M2.5,2.5 L10.8333333,2.5 L10.8333333,11.5 C10.8333333,12.0522847 10.3856181,12.5 9.83333333,12.5 L3.5,12.5 C2.94771525,12.5 2.5,12.0522847 2.5,11.5 L2.5,2.5 L2.5,2.5 Z" id="Rectangle"></path>
	                <polyline id="Path" points="0 9.91666667 0 -2.27373675e-13 8.33333333 -2.27373675e-13"></polyline>
	            </g>
	        </g>
	    </g>
	</svg>

	<svg width="18px" height="18px" viewBox="0 0 18 18" x="20" version="1.1" xmlns="http://www.w3.org/2000/svg" xmlns:xlink="http://www.w3.org/1999/xlink">
	    <title>Group</title>
	    <g id="Symbols" stroke="none" stroke-width="1" fill="none" fill-rule="evenodd">
	        <g id="ico/24/information" transform="translate(-3.000000, -3.000000)">
	            <g id="Group" transform="translate(4.000000, 4.000000)">
	                <path d="M8,0 C3.584,0 0,3.584 0,8 C0,12.416 3.584,16 8,16 C12.416,16 16,12.416 16,8 C16,3.584 12.416,0 8,0 L8,0 Z" id="Fill-1" stroke="#194BDC" stroke-width="1.2"></path>
	                <path d="M8.75,7.25 L8.75,11.75 L7.25,11.75 L7.25,7.25 L8.75,7.25 Z M8.75,4.25 L8.75,5.75 L7.25,5.75 L7.25,4.25 L8.75,4.25 Z" id="Combined-Shape" fill="#194BDC"></path>
	            </g>
	        </g>
	    </g>
	</svg>
	<svg width="20px" height="18px" viewBox="0 0 20 18" x="20" y="20" version="1.1" xmlns="http://www.w3.org/2000/svg" xmlns:xlink="http://www.w3.org/1999/xlink">
	    <title>Group</title>
	    <g id="Symbols" stroke="none" stroke-width="1" fill="none" fill-rule="evenodd">
	        <g id="ico/24/danger" transform="translate(-2.000000, -3.000000)">
	            <g id="Group" transform="translate(3.000000, 4.000000)">
	                <polygon id="Triangle" stroke="#DC1919" stroke-width="1.2" stroke-linejoin="round" points="9 0 18 16 0 16"></polygon>
	                <path d="M9.75,9.5 L9.75,14 L8.25,14 L8.25,9.5 L9.75,9.5 Z M9.75,6.5 L9.75,8 L8.25,8 L8.25,6.5 L9.75,6.5 Z" id="Combined-Shape" fill="#DC1919" transform="translate(9.000000, 10.250000) rotate(-180.000000) translate(-9.000000, -10.250000) "></path>
	            </g>
	        </g>
	    </g>
	</svg>
	<svg width="20px" height="18px" viewBox="0 0 20 18" x="20" y="40" version="1.1" xmlns="http://www.w3.org/2000/svg" xmlns:xlink="http://www.w3.org/1999/xlink">
	    <title>ico/24/warning</title>
	    <g id="ㄴ-가이드센터" stroke="none" stroke-width="1" fill="none" fill-rule="evenodd" opacity="0.900000036">
	        <g id="contents" transform="translate(-419.000000, -4699.000000)">
	            <g transform="translate(405.000000, 96.000000)" id="Group-2">
	                <g transform="translate(0.000000, 191.000000)">
	                    <g transform="translate(0.000000, 4157.000000)">
	                        <g id="warning" transform="translate(0.000000, 232.000000)">
	                            <g id="Group" transform="translate(12.000000, 20.000000)">
	                                <g transform="translate(3.000000, 4.000000)">
	                                    <polygon id="Triangle" stroke="#DA8A09" stroke-width="1.2" stroke-linejoin="round" points="9 0 18 16 0 16"></polygon>
	                                    <path d="M9.75,9.5 L9.75,14 L8.25,14 L8.25,9.5 L9.75,9.5 Z M9.75,6.5 L9.75,8 L8.25,8 L8.25,6.5 L9.75,6.5 Z" id="Combined-Shape" fill="#DA8A09" transform="translate(9.000000, 10.250000) rotate(-180.000000) translate(-9.000000, -10.250000) "></path>
	                                </g>
	                            </g>
	                        </g>
	                    </g>
	                </g>
	            </g>
	        </g>
	    </g>
	</svg>

	<svg width="27px" height="28px" viewBox="0 0 27 28" x="50" version="1.1" xmlns="http://www.w3.org/2000/svg" xmlns:xlink="http://www.w3.org/1999/xlink">
	    <title>Group</title>
	    <g id="Symbols" stroke="none" stroke-width="1" fill="none" fill-rule="evenodd">
	        <g id="ico/24/search" transform="translate(1.000000, 2.000000)" stroke="#FFFFFF" stroke-width="1.5">
	            <g id="Group" transform="translate(12.500000, 12.000000) rotate(-45.000000) translate(-12.500000, -12.000000) translate(5.000000, 1.000000)">
	                <circle id="Oval" cx="7.5" cy="7.5" r="6.75"></circle>
	                <line x1="7.5" y1="14" x2="7.5" y2="22" id="Path-6"></line>
	            </g>
	        </g>
	    </g>
	</svg>
	<svg width="24px" height="24px" viewBox="0 0 24 24" x="80" version="1.1" xmlns="http://www.w3.org/2000/svg" xmlns:xlink="http://www.w3.org/1999/xlink">
	    <title>ico/32/search</title>
	    <defs>
	        <filter id="filter-1">
	            <feColorMatrix in="SourceGraphic" type="matrix" values="0 0 0 0 0.098039 0 0 0 0 0.294118 0 0 0 0 0.862745 0 0 0 1.000000 0"></feColorMatrix>
	        </filter>
	    </defs>
	    <g id="ㄴ-가이드센터" stroke="none" stroke-width="1" fill="none" fill-rule="evenodd">
	        <g id="github.io_Main_1920" transform="translate(-1403.000000, -451.000000)">
	            <g id="Contents" transform="translate(281.000000, 56.000000)">
	                <g id="title-/-search" transform="translate(474.000000, 240.000000)">
	                    <g id="Group-3" transform="translate(0.000000, 139.000000)">
	                        <g id="ico/32/search" transform="translate(640.000000, 8.000000)" filter="url(#filter-1)">
	                            <g id="Group-11" transform="translate(21.066942, 21.066942) rotate(-45.000000) translate(-21.066942, -21.066942) translate(11.691942, 7.316942)" fill="#222222" fill-rule="nonzero">
	                                <path d="M9.375,0.0904130879 C14.3800805,0.0904130879 18.4375,4.14783254 18.4375,9.15291309 C18.4375,13.8412381 14.8773919,17.6980552 10.3130917,18.1674488 L10.3125,27.2779131 L8.4375,27.2779131 L8.43790845,18.1675516 C3.87312814,17.6986186 0.3125,13.8415805 0.3125,9.15291309 C0.3125,4.14783254 4.36991945,0.0904130879 9.375,0.0904130879 Z M9.375,1.96541309 C5.40545336,1.96541309 2.1875,5.18336645 2.1875,9.15291309 C2.1875,13.1224597 5.40545336,16.3404131 9.375,16.3404131 C13.3445466,16.3404131 16.5625,13.1224597 16.5625,9.15291309 C16.5625,5.18336645 13.3445466,1.96541309 9.375,1.96541309 Z" id="Combined-Shape"></path>
	                            </g>
	                        </g>
	                    </g>
	                </g>
	            </g>
	        </g>
	    </g>
	</svg>
	
	<svg width="20px" height="14px" viewBox="0 0 20 14" x="50" y="40" version="1.1" xmlns="http://www.w3.org/2000/svg" xmlns:xlink="http://www.w3.org/1999/xlink">
	    <title>icon/menu</title>
	    <g id="Symbols" stroke="none" stroke-width="1" fill="none" fill-rule="evenodd">
	        <g id="module/topbar/service_name" transform="translate(-26.000000, -21.000000)" fill="#FFFFFF">
	            <g id="Group" transform="translate(20.000000, 12.000000)">
	                <g id="icon/menu" transform="translate(6.000000, 9.000000)">
	                    <path d="M20,12 L20,14 L0,14 L0,12 L20,12 Z M20,6 L20,8 L0,8 L0,6 L20,6 Z M20,0 L20,2 L0,2 L0,0 L20,0 Z" id="Combined-Shape"></path>
	                </g>
	            </g>
	        </g>
	    </g>
	</svg>
</svg>