<?xml version="1.0" encoding="UTF-8"?>
<svg width="16px" height="16px" viewBox="0 0 16 16" version="1.1" xmlns="http://www.w3.org/2000/svg" xmlns:xlink="http://www.w3.org/1999/xlink">
    <title>ico/32/arrow_small/down copy</title>
    <g id="ㄴ-가이드센터" stroke="none" stroke-width="1" fill="none" fill-rule="evenodd" opacity="0.300000012">
        <g id="github.io_Main_focus_1440" transform="translate(-1177.000000, -455.000000)" fill="#222222">
            <g id="Contents" transform="translate(281.000000, 56.000000)">
                <g id="search_focus" transform="translate(236.000000, 379.000000)">
                    <g id="ico/32/arrow_small/down-copy" transform="translate(652.000000, 12.000000)">
                        <path d="M16,8 C20.418278,8 24,11.581722 24,16 C24,20.418278 20.418278,24 16,24 C11.581722,24 8,20.418278 8,16 C8,11.581722 11.581722,8 16,8 Z M18.298097,12.6412428 L16.0007071,14.9386327 L13.701903,12.6412428 L12.6412428,13.701903 L14.9400469,15.9992929 L12.6412428,18.298097 L13.701903,19.3587572 L16.0007071,17.0599531 L18.298097,19.3587572 L19.3587572,18.298097 L17.0613673,15.9992929 L19.3587572,13.701903 L18.298097,12.6412428 Z" id="Combined-Shape"></path>
                    </g>
                </g>
            </g>
        </g>
    </g>
</svg>