<?xml version="1.0" encoding="UTF-8"?>
<svg width="104px" height="15px" viewBox="0 0 104 15" version="1.1" xmlns="http://www.w3.org/2000/svg" xmlns:xlink="http://www.w3.org/1999/xlink">
    <title>img/logo</title>
    <g id="Symbols" stroke="none" stroke-width="1" fill="none" fill-rule="evenodd">
        <g id="module/topbar/service_1920" transform="translate(-74.000000, -20.000000)" fill="#FFFFFF">
            <g id="logo/kakao_i_cloud" transform="translate(32.000000, 12.000000)">
                <g id="logo_icloud" transform="translate(40.000000, 4.000000)">
                    <path d="M66.0509453,8.70473559 C67.4567995,8.70473559 68.615666,9.03672507 69.4135064,9.53498549 L68.6536313,11.2139905 C67.9317215,10.9187353 67.247777,10.697363 66.2218603,10.697363 C64.7402176,10.697363 63.7332124,11.5644852 63.7332124,13.8523678 C63.7332124,16.1217451 64.7591291,16.9705003 66.4499366,16.9705003 C67.3237077,16.9705003 68.3307128,16.6937503 69.0145151,16.4170003 L69.6034752,18.1328777 C68.7106504,18.6495053 67.3999227,19 66.01298,19 C62.764457,19 61.1687761,17.136495 61.1687761,13.8707349 C61.1687761,10.7342353 62.764457,8.70473559 66.0509453,8.70473559 Z M80.2411011,8.70480464 C83.1667056,8.70480464 84.9712668,10.6972939 84.9712668,13.9261816 C84.9712668,17.0626812 83.2045287,18.999931 80.2411011,18.999931 C77.2775313,18.999931 75.4917395,17.0626812 75.4917395,13.9261816 C75.4917395,10.7343044 77.3153544,8.70480464 80.2411011,8.70480464 Z M8.21209279,8.7230613 L9.46580141,9.62705595 L6.17931311,13.6123107 L9.97883086,18.021943 L8.72498005,18.9813152 L4.29867909,13.6861935 L8.21209279,8.7230613 Z M89.359318,8.99999079 L89.359318,15.2361176 C89.359318,16.3247503 89.8151862,16.859745 91.0879486,16.859745 C91.7339278,16.859745 92.4558376,16.6015003 92.8167214,16.3432556 L92.8167214,8.99999079 L95.4003536,8.99999079 L95.4003536,18.72325 L93.5956502,18.72325 L93.3486624,17.7268673 C92.4367838,18.6495053 91.2779174,18.9814948 90.1951238,18.9814948 C88.0103407,18.9814948 86.7756858,17.8376225 86.7756858,15.2731281 L86.7756858,8.99999079 L89.359318,8.99999079 Z M106,4.51644803 L106,18.7232224 L104.233404,18.7232224 L103.929397,17.8929725 C103.112645,18.6124672 102.124552,18.9814671 101.155796,18.9814671 C98.5340564,18.9814671 97.1853634,17.191845 97.1853634,13.8154678 C97.1853634,10.6789682 98.8191518,8.70470797 101.573699,8.70470797 C102.219536,8.70470797 102.941588,8.83396843 103.454475,9.14745268 L103.454475,4.95933083 L106,4.51644803 Z M27.3790182,8.72308892 L28.632869,9.62708357 L25.3463807,13.6123383 L29.1458985,18.0219706 L27.8919055,18.9813429 L23.4657467,13.686083 L27.3790182,8.72308892 Z M44.2094699,8.83387177 C46.9830709,8.83387177 48.6546824,10.6418611 48.6546824,13.8891159 C48.6546824,17.1180036 47.0019825,18.9076257 44.2094699,18.9076257 C41.4358689,18.9076257 39.7641152,17.1180036 39.7641152,13.8891159 C39.7641152,10.6418611 41.4549226,8.83387177 44.2094699,8.83387177 Z M15.023611,8.83383034 C17.3982207,8.83383034 18.5570872,9.9406921 18.5570872,12.3762023 L18.5570872,18.7230843 L17.3793092,18.7230843 L17.1891982,17.6529568 C16.201389,18.4279672 14.9284844,18.87085 13.9217637,18.87085 C12.1550256,18.87085 11.0911436,17.8374568 11.0911436,16.1032123 C11.0911436,14.1290901 12.4590325,13.0956969 15.023611,13.0956969 L17.0182832,13.0956969 L17.0182832,12.3024575 C17.0182832,10.7710801 16.3154271,10.1622025 14.9855035,10.1622025 C14.0547134,10.1622025 13.0098851,10.4389525 12.1928487,10.8079525 L11.718069,9.71945784 C12.7249319,9.16581981 13.9406752,8.83383034 15.023611,8.83383034 Z M34.1906075,8.83383034 C36.5652173,8.83383034 37.7240837,9.9406921 37.7240837,12.3762023 L37.7240837,18.7230843 L36.5463057,18.7230843 L36.3561947,17.6529568 C35.3683855,18.4279672 34.0956232,18.87085 33.0887602,18.87085 C31.3220221,18.87085 30.2581401,17.8374568 30.2581401,16.1032123 C30.2581401,14.1290901 31.626029,13.0956969 34.1906075,13.0956969 L36.1852797,13.0956969 L36.1852797,12.3024575 C36.1852797,10.7710801 35.4824237,10.1622025 34.1526422,10.1622025 C33.2217099,10.1622025 32.1768816,10.4389525 31.3599874,10.8079525 L30.8850655,9.71945784 C31.8919285,9.16581981 33.1076718,8.83383034 34.1906075,8.83383034 Z M3.59582305,4.57181183 L3.59582305,18.7230705 L2,18.7230705 L2,4.92230654 L3.59582305,4.57181183 Z M56.2676528,9.0000046 L56.2676528,18.7232638 L53.722128,18.7232638 L53.722128,9.0000046 L56.2676528,9.0000046 Z M73.7063173,4.51647565 L73.7063173,18.72325 L71.1607926,18.72325 L71.1607926,4.95935845 L73.7063173,4.51647565 Z M22.7627485,4.57170135 L22.7627485,18.7230981 L21.1669254,18.7230981 L21.1669254,4.92233416 L22.7627485,4.57170135 Z M44.2094699,10.1067283 C42.4425896,10.1067283 41.4168151,11.4352386 41.4168151,13.8891159 C41.4168151,16.3431313 42.4425896,17.634493 44.2094699,17.634493 C45.976208,17.634493 47.0019825,16.3431313 47.0019825,13.8891159 C47.0019825,11.4352386 45.976208,10.1067283 44.2094699,10.1067283 Z M17.0182832,14.1843297 L15.2324914,14.1843297 C13.427788,14.1843297 12.6108938,14.774702 12.6108938,16.0293294 C12.6108938,17.0442174 13.1809423,17.6162226 14.2067168,17.6162226 C15.137507,17.6162226 16.3533925,17.1363293 17.0182832,16.5090846 L17.0182832,14.1843297 Z M36.1852797,14.1843297 L34.3994879,14.1843297 C32.5949267,14.1843297 31.7778903,14.774702 31.7778903,16.0293294 C31.7778903,17.0442174 32.3479388,17.6162226 33.3737134,17.6162226 C34.3045035,17.6162226 35.520389,17.1363293 36.1852797,16.5090846 L36.1852797,14.1843297 Z M80.2411011,10.6235492 C78.8161931,10.6235492 78.0944255,11.7859266 78.0944255,13.9446868 C78.0944255,16.011059 78.7972815,17.0811864 80.2411011,17.0811864 C81.7038322,17.0811864 82.3688652,16.011059 82.3688652,13.9446868 C82.3688652,11.7859266 81.6849207,10.6235492 80.2411011,10.6235492 Z M102.029567,10.6420958 C100.566836,10.6420958 99.7689956,11.8044733 99.7689956,13.9447283 C99.7689956,15.9188504 100.414833,17.007345 101.611807,17.007345 C102.181713,17.007345 102.82755,16.8044779 103.454475,16.3247227 L103.454475,10.8265958 C102.903623,10.6789682 102.523543,10.6420958 102.029567,10.6420958 Z M54.9948904,4 L56.8566128,5.82649453 L54.9948904,7.63462192 L53.1330257,5.82649453 L54.9948904,4 Z"></path>
                </g>
            </g>
        </g>
    </g>
</svg>